<?xml version="1.0" encoding="UTF-8"?>
<!-- Created with Inkscape (http://www.inkscape.org/) -->
<svg
  width="200"
  height="120"
  version="1.1"
  viewBox="0 0 200 120"
  xml:space="preserve"
  xmlns="http://www.w3.org/2000/svg"
>

<!-- #3b657c" -->
  <g
    fill="#0277bd"
    stroke="#fff"
    stroke-width="4"
  >
    <path
      d="m55.42 4.58c-17.18-4.132-43.81 16.88-48.06 32.36 0 0-2.076 68.59 1.956 70.58 5.307 1.762 16.23 2.456 36.73 8.713s23.38-7.935 23.85-22.31c0.4678-14.37-12.34-19.56-16.96-20.69-4.619-1.134-8.096-4.435-7.103-8.477 0.9924-4.042 32.25-14.12 22.44-46.53-2.45-8.101-7.127-12.27-12.86-13.65zm-13.94 17.33c6.125-1.712 11.86 2.312 12.75 5.262 0.7192 2.38 1.838 10.12-3.168 14.17-4.752 3.841-22.63 12.94-23.97 11.51-1.334-1.421-1.19-19.57-0.2351-20.97 4.838-6.698 12.22-9.305 14.61-9.974zm0.6396 62.15c3.035 0.7544 10.28 4.19 10.62 5.884 0.7812 3.872 1.283 12.69-3.76 13.83-5.043 1.142-21.82-2.776-22.92-4.021-1.105-1.245-2.009-15.82 1.172-17.31 3.338-0.7023 10.98 0.6426 14.89 1.612z"
    />
    <path
      d="m157.6 10.13c-15.1-3.479-32.68 2.864-35.79 15.88l13.66 88.88s16.5 4.489 36.96-1.905c21.11-6.594 24.54-13.57 24.53-27.95-0.0186-14.38-16.96-18.67-21.61-19.65-4.655-0.9772-14.63 0.7262-13.78-3.347 0.8552-4.073 27.06-6.529 16.86-34.35-3.606-9.839-11.77-15.46-20.83-17.55zm-7.755 13.65c4.428-0.5908 13.22 4.33 13.54 5.651 0.9117 3.843 2.165 15.17-2.835 16.48-5.001 1.312-16.32 4.464-17.46 3.257-1.146-1.207-8.025-17.5-5.606-20.76 1.544-2.198 7.838-4.05 12.36-4.621zm20.28 57.49c1.707 0.3634 2.92 0.974 3.279 1.894 1.435 3.679 1.523 10.96-3.248 12.95-4.771 1.992-17.72 3.55-19.01 2.514-1.299-1.037-2.795-13.61 0.0817-15.64 4.224-1.687 13.78-2.819 18.9-1.728z"
    />
    <path
      d="m98.14 33.43c-1.544-0.4969-3.235-0.8906-5.082-1.157-14.77-2.133-24.29 12.24-24.83 19.36s10.98 15.93 11.05 17.06c0.0761 1.129-15.12 4.385-14.21 17.27 0.9086 12.89 9.424 28.9 23.94 24.99 5.307-1.375 16.12-12.24 18.44-11.93 2.329 0.3124 19.58 5.427 21.04 5.68 1.464 0.2533 4.894-4.57 5.607-6.77s1.833-8.375 0.6976-8.963c-1.135-0.5885-13.77-2.536-13.84-3.665-0.0761-1.129 12.16-15.4 12.27-17.8 0.1124-2.394-8.667-10.08-9.92-8.934-1.253 1.14-10.2 16.87-11.46 16.68-1.264-0.1886-11.26-3.426-11.55-5.95-0.2875-2.523 8.685-10.44 10.55-17.57 1.634-6.238-1.893-14.82-12.7-18.3zm-5.762 10.87c3.343 1.083 6.155 4.405 5.375 6.814-0.9601 2.964-1.516 3.919-3.957 3.884-2.442-0.035-7.508 1.222-7.732-2.629-0.2242-3.851-0.8189-6.942 3.953-8.421 0.7907-0.0273 1.59 0.1022 2.361 0.3521zm2.663 37.44c4.259 1.379 7.862 5.538 6.895 8.525-1.191 3.677-1.885 4.857-4.989 4.79-3.103-0.0676-9.53 1.445-9.848-3.346-0.3233-4.792-1.108-8.64 4.942-10.44 1.005-0.0262 2.023 0.144 3.006 0.4623z"
    />
  </g>
</svg>