<?xml version="1.0" encoding="UTF-8"?>
<!-- Created with Inkscape (http://www.inkscape.org/) -->
<svg
  width="330"
  height="260"
  version="1.1"
  viewBox="0 0 330 260"
  xml:space="preserve"
  xmlns="http://www.w3.org/2000/svg"
>
  <g
    fill="#0277bd"
    stroke="#fff"
    stroke-width="4"
  >
    <path
      d="m44.38 38.06c-17.67 0.0836-38.52 26.84-38.96 42.89 0 0 14.34 67.11 18.73 68.08 5.574 0.4459 16.35-1.486 37.75-0.2973s20.81-13.28 17.84-27.35c-2.973-14.07-16.65-16.05-21.4-16.05-4.756 0-8.92-2.377-8.92-6.539 0-4.162 27.95-21.4 10.7-50.54-4.311-7.283-9.848-10.22-15.74-10.19zm-9.407 20.15c5.54-3.123 12.07-0.5828 13.64 2.069 1.266 2.14 4.199 9.394 0.3026 14.52-3.699 4.863-18.89 17.96-20.53 16.89-1.634-1.062-5.822-18.72-5.229-20.31 3.101-7.658 9.645-11.95 11.81-13.17zm15.44 60.2c3.127 9e-3 10.98 1.618 11.72 3.181 1.682 3.574 4.272 12.02-0.3528 14.33-4.625 2.312-21.85 2.507-23.22 1.561s-5.722-14.88-2.989-17.09c3.074-1.478 10.82-1.995 14.84-1.984z"
    />
    <path
      d="m69.47 118.7s-6.937-21.44-5.676-23.54 4.204-15.35 9.67-9.88c5.465 5.465 15.56 32.58 15.56 32.58s2.312 5.465 8.829 1.892c6.516-3.574 2.733-14.5 2.733-14.5s-6.096-16.19-6.096-17.87c0-1.682 1.471-10.93 6.096-9.249 4.625 1.682 8.618 4.835 9.67 7.357 1.051 2.522 8.618 27.54 11.14 29.22 2.522 1.682 6.727 2.943 7.147 5.255 0.4204 2.312-6.306 12.82-9.88 10.72s-10.09-5.886-12.61-4.414c-2.522 1.471-11.98 13.87-15.77 12.4-3.784-1.471-20.81-19.97-20.81-19.97z"
    />
    <path
      d="m96.31 45.01c-1.486-7.729-2.675-17.84 3.865-16.65 6.54 1.189 11.89 16.05 11.89 17.84 0 1.784 8.324 35.38 11.89 43.7s17.84 23.48 20.21 24.67 5.946 5.648 2.973 8.918c-2.973 3.27-14.86 6.243-17.24 3.567-2.378-2.675-21.7-37.16-23.78-42.51-2.081-5.351-9.81-39.54-9.81-39.54z"
    />
    <path
      d="m126.6 4c-0.8884 0-1.81 0.21-2.479 0.8789-1.784 1.784 0 16.65 0 19.03s15.76 35.38 15.16 37.46c-0.5946 2.081-11 11.89-13.68 19.32-2.676 7.432 3.567 22 5.945 26.46s13.08 8.622 20.21 9.217c7.135 0.5946 12.49-8.027 14.27-9.514s8.622 6e-5 10.7-1.486-1.189-7.134-2.973-8.918c-1.784-1.784-8.325-1.783-10.7-3.566-2.378-1.784-8.323-25.57-9.512-30.92s-24.08-57.38-24.08-57.38-1.392-0.5801-2.873-0.5801zm17.89 80.86c1.681-5e-3 2.777 2.412 3.51 3.559 1.779 3.646 3.199 8.764 2.258 9.914-0.9415 1.15-8.131-1.237-9.547-2.934-1.416-1.697-0.8983-6.882 1.895-9.59 0.6982-0.677 1.324-0.9474 1.885-0.9492z"
    />
    <path
      d="m179 41.33c-7.023-0.0372-15.05 1.004-19.96 3.68-9.81 5.351-1.485 30.92 0.2988 36.56 0 0 4.434 15.64 17.33 16.31 11.94 0.6244 25.46-12.5 27.64-17.05 2.621-5.459 1.49-15.52-0.8887-19.98-2.378-4.459-7.365 3.799-7.365 3.799s-0.1816 4.193-0.0684 5.488c0.4621 5.285-6.329 7.566-10.19 10.54-3.865 2.973-8.723 0.1384-11.1-2.537-2.378-2.675-1.98-5.489-1.088-7.867 0.8918-2.378 23.78-13.67 23.78-15.16 0-1.486-2.675-7.73-4.459-11-0.8918-1.635-6.912-2.75-13.94-2.787zm-4.734 6.803c2.172-0.0406 4.866 0.7028 6.631 2.375 2.824 2.676-0.8925 4.46-2.379 5.5-3.567 1.932-8.621 3.568-9.811 2.676s0.8923-8.176 2.527-9.662c0.6131-0.5574 1.728-0.8643 3.031-0.8887z"
    />
    <path
      d="m208.4 75.84s-5.738-20.78-6.722-23.57c-0.9839-2.793-7.681-16.55-7.937-19.82s1.615-9.72 6.892-7.513c5.277 2.206 6.349 7.674 8.31 8.502 1.96 0.828 7.73-0.1047 9.914-1.515s9.744-6.714 12.73-6.218 5.275 6.668 5.17 8.01c-0.1047 1.342-5.229 8.351-8.67 7.72-3.441-0.6308-12-3.027-15.21-1.137-3.21 1.89 0.2582 16.95 1.347 18.4 1.089 1.451 6.756 15.54 5.636 17.66-1.12 2.119-3.831 5.628-7.009 3.948-3.178-1.68-4.459-4.464-4.459-4.464z"
    />
    <path
      d="m143.4 137.2c-15.49-0.303-31.39 9.517-31.76 22.89l31.63 84.18s17.07 1.003 35.78-9.459c19.3-10.79 21.23-18.32 18.26-32.39-2.973-14.07-20.43-14.79-25.19-14.79-4.756 0-14.17 3.717-14.17-0.4453 0-4.162 25.14-11.95 9.441-37.08-5.551-8.888-14.7-12.71-23.99-12.9zm-4.785 14.95c4.212-1.488 13.83 1.521 14.41 2.749 1.682 3.574 5.236 14.4 0.6117 16.71-4.625 2.312-15.05 7.721-16.42 6.775s-11.45-15.48-9.753-19.17c1.06-2.468 6.839-5.574 11.15-7.063zm31.66 52.1c1.745 5e-3 3.058 0.3532 3.598 1.18 2.16 3.306 3.742 10.41-0.5176 13.34-4.26 2.93-16.61 7.115-18.09 6.367-1.484-0.7476-5.533-12.75-3.133-15.32 3.787-2.519 12.91-5.591 18.14-5.574z"
    />
    <path
      d="m200.4 218s-9.844-19.18-11.38-21.71c-1.531-2.535-10.89-14.65-11.8-17.79-0.9141-3.143-0.3959-9.845 5.22-8.758 5.616 1.087 7.777 6.222 9.865 6.634 2.088 0.412 7.547-1.675 9.399-3.5 1.852-1.825 8.175-8.556 11.2-8.678 3.029-0.1218 6.521 5.456 6.691 6.791 0.1704 1.335-3.421 9.24-6.919 9.322s-12.36-0.524-15.12 1.979c-2.758 2.503 3.691 16.85 5.052 18.05 1.361 1.2 9.784 13.53 9.118 15.83-0.6659 2.302-2.606 6.29-6.06 5.291-3.454-0.9989-5.274-3.464-5.274-3.464z"
    />
    <path
      d="m55.83 169.5c-1.622 3e-3 -3.352 0.1495-5.191 0.4648-14.71 2.522-19.34 19.13-17.66 26.07s15.35 11.77 15.77 12.82c0.4204 1.051-13.03 8.829-8.197 20.81 4.835 11.98 17.87 24.59 30.48 16.4 4.625-2.943 11.56-16.61 13.87-17.03 2.312-0.4204 20.3-0.8699 21.77-1.08 1.471-0.2102 3.248-5.856 3.248-8.168 0-2.312-0.8364-8.532-2.098-8.742-1.261-0.2102-13.88 1.83-14.3 0.7793-0.4204-1.051 6.818-18.4 6.188-20.71-0.6306-2.312-11.35-6.915-12.19-5.443-0.8408 1.471-4.504 19.19-5.766 19.4-1.261 0.2102-11.77 0.2107-12.82-2.102-1.051-2.312 5.045-12.61 4.625-19.97-0.3678-6.438-6.369-13.52-17.72-13.5zm-2.131 12.12c3.514 0 7.213 2.294 7.213 4.826 0 3.116-0.2348 4.195-2.568 4.914-2.334 0.7191-6.766 3.476-8.166-0.1191-1.4-3.595-2.918-6.352 1.166-9.229 0.7438-0.2696 1.544-0.3926 2.355-0.3926zm14.07 34.8c4.477 0 9.186 2.846 9.186 5.986 0 3.865-0.2968 5.202-3.27 6.094-2.973 0.8918-8.621 4.311-10.4-0.1484-1.784-4.459-3.716-7.878 1.486-11.45 0.9476-0.3344 1.969-0.4863 3.002-0.4863z"
    />
    <path
      d="m225.3 123.9c-0.9503-6e-3 -1.911 0.0974-2.887 0.3203-10.4 2.378-22 24.97-21.7 29.43 0.2973 4.459 0.5228 8.163 2.08 9.217 3.676 2.486 11.58-16.59 17.23-19.86s14.58-0.3562 16.96 5.292c2.378 5.648 2.674 15.16-1.785 16.65-4.459 1.486-19.32 2.972-20.81 7.432-1.486 4.459-0.8927 22.59 2.08 26.46s11.89 12.48 13.38 12.19c1.486-0.2973 10.7-13.67 19.03-18.13 8.324-4.459 13.67-7.135 17.84-6.838 4.162 0.2973 6.244-1.189 6.244-3.27 0-2.081 2.08-9.812-2.379-10.41-4.459-0.5946-11.89-0.5943-13.97-5.945s-6.242-22-6.242-22c-7.813-10.24-15.87-20.48-25.06-20.54zm14.07 49.23c1.09-2e-3 1.941 0.4826 2.52 1.711 1.682 3.574 4.941 8.303 0.3164 10.62-4.625 2.312-8.515 5.046-9.881 4.1-1.366-0.9459-4.309-10.72-1.576-12.93 3.587-1.724 6.539-3.495 8.621-3.498z"
    />
    <path
      d="m244.3 70.1c4.784-0.3082 10.29 7.17 12.79 15.06s11.69 63.24 15.91 62.31 7.063-8.51 6.09-12.14-1.612-22.73 0.4533-27.37c2.066-4.641 8.701-6.029 11-4.7s3.808 25.84 2.3 31.11c-1.508 5.27-6.612 10.92-5.568 13.36 1.044 2.445 16.08 9.901 20.2 10.74s14.91-0.2955 14.62 4.452c-0.2853 4.748 1.103 11.38-1.378 13.02-2.481 1.638-18.22-4.073-24.57-7.432s-6.694-7.55-10.25-7.764c-3.561-0.214 4.995 25.91 1.814 29.29-3.181 3.383-14.91 0.2955-15.88-3.337-0.973-3.632-33.19-91.93-34.54-99.16-1.353-7.229 7.005-17.45 7.005-17.45z"
    />
  </g>
</svg>