<?xml version="1.0" encoding="UTF-8"?>
<!-- Created with Inkscape (http://www.inkscape.org/) -->
<svg width="540" height="160" version="1.1" viewBox="0 0 540 160" xml:space="preserve" xmlns="http://www.w3.org/2000/svg"><g fill="#3b657c" stroke="#fff" stroke-width="4"><path d="m55.42 20.58c-17.18-4.132-43.81 16.88-48.06 32.36 0 0-2.076 68.59 1.956 70.58 5.307 1.762 16.23 2.456 36.73 8.713 20.5 6.257 23.38-7.935 23.85-22.31 0.4678-14.37-12.34-19.56-16.96-20.69-4.619-1.134-8.096-4.435-7.103-8.477 0.9924-4.042 32.25-14.12 22.44-46.53-2.45-8.101-7.127-12.27-12.86-13.65zm-13.94 17.33c6.125-1.712 11.86 2.312 12.75 5.262 0.7192 2.38 1.838 10.12-3.168 14.17-4.752 3.841-22.63 12.94-23.97 11.51-1.334-1.421-1.19-19.57-0.2351-20.97 4.838-6.698 12.22-9.305 14.61-9.974zm0.6396 62.15c3.035 0.7544 10.28 4.19 10.62 5.884 0.7812 3.872 1.283 12.69-3.76 13.83-5.043 1.142-21.82-2.776-22.92-4.021-1.105-1.245-2.009-15.82 1.172-17.31 3.338-0.7023 10.98 0.6426 14.89 1.612z"/><path d="m60.55 104.9s-1.624-22.48 0.101-24.21c1.725-1.739 7.743-13.9 11.75-7.289 4.004 6.611 7.342 35.35 7.342 35.35s0.9422 5.859 8.123 3.943c7.18-1.917 6.112-13.43 6.112-13.43s-2.06-17.18-1.659-18.81c0.4011-1.633 4.035-10.26 8.126-7.529 4.091 2.736 7.216 6.751 7.637 9.451 0.4193 2.7 1.802 28.8 3.851 31.03 2.048 2.235 5.831 4.462 5.688 6.808-0.143 2.346-9.181 10.95-12.15 8.055-2.97-2.892-8.395-8.122-11.19-7.294-2.8 0.8272-14.94 10.61-18.27 8.282-3.324-2.331-15.45-24.36-15.45-24.36z"/><path d="m104.2 39.71c0.3999-7.86 1.656-17.96 7.724-15.25 6.068 2.714 7.72 18.42 7.293 20.16-0.4254 1.733-0.3526 36.34 1.127 45.27s11.73 27.06 13.74 28.78 4.428 6.903 0.7607 9.37c-3.667 2.467-15.92 2.519-17.59-0.6469-1.672-3.165-12.21-41.26-12.96-46.95-0.745-5.693-0.0985-40.74-0.0985-40.74z"/><path d="m143.4 7.105c-0.8628-0.2118-1.808-0.2277-2.617 0.2624-2.158 1.307-3.97 16.17-4.538 18.48-0.5675 2.311 6.869 38.12 5.79 39.99-1.074 1.879-13.52 8.924-17.89 15.5-4.371 6.58-1.782 22.22-0.536 27.11 1.246 4.898 10.65 11.49 17.43 13.77 6.787 2.279 14.04-4.817 16.13-5.837 2.083-1.02 8.373 2.056 10.75 1.108 2.372-0.9477 0.5464-7.212-0.7607-9.37-1.307-2.158-7.66-3.717-9.541-6.015-1.884-2.3-1.986-26.82-1.865-32.3s-9.703-61.47-9.703-61.47-1.214-0.8953-2.652-1.248zm-1.908 82.79c1.634 0.396 2.122 3.005 2.56 4.293 0.8583 3.965 1.017 9.274-0.1712 10.17-1.189 0.8923-7.601-3.14-8.572-5.126-0.9705-1.986 0.7687-6.898 4.127-8.861 0.8395-0.491 1.512-0.6044 2.057-0.4723z"/><path d="m185.4 55.85c-6.812-1.711-14.86-2.614-20.26-1.186-10.8 2.857-8.815 29.67-8.428 35.58 0 0 0.5767 16.25 12.94 19.97 11.45 3.454 27.71-6.068 30.91-9.967 3.847-4.677 5.148-14.72 3.901-19.62-1.246-4.897-8.058 1.933-8.058 1.933s-1.176 4.029-1.375 5.313c-0.8115 5.243-7.951 5.839-12.41 7.806-4.462 1.966-8.504-1.946-10.17-5.111-1.672-3.165-0.614-5.803 0.8193-7.9 1.433-2.097 26.35-7.605 26.71-9.052 0.3543-1.443-0.7546-8.145-1.707-11.75-0.4762-1.8-6.057-4.319-12.87-6.031zm-6.22 5.478c2.119 0.4785 4.558 1.843 5.873 3.888 2.104 3.272-1.93 4.119-3.622 4.774-3.925 1.026-9.223 1.409-10.17 0.2593-0.943-1.15 2.816-7.727 4.758-8.781 0.7283-0.3951 1.884-0.4273 3.155-0.1403z"/><path d="m205.7 96.38s-0.6174-21.55-0.9077-24.49c-0.2895-2.947-3.513-17.9-2.982-21.14 0.5311-3.237 3.886-9.055 8.485-5.653 4.599 3.401 4.336 8.967 6.043 10.24 1.706 1.271 7.532 1.742 9.989 0.8927 2.457-0.8488 11.06-4.197 13.85-3.003 2.782 1.194 3.533 7.734 3.111 9.012-0.4217 1.278-7.07 6.863-10.26 5.43-3.191-1.433-10.93-5.801-14.5-4.731-3.568 1.07-3.791 16.52-3.079 18.19 0.7116 1.669 2.856 16.7 1.262 18.49-1.593 1.791-5.063 4.552-7.748 2.163-2.686-2.389-3.266-5.398-3.266-5.398z"/><path d="m366.8 51.52c-15.1-3.479-32.68 2.864-35.79 15.88l13.66 88.88s16.5 4.489 36.96-1.905c21.11-6.594 24.54-13.57 24.53-27.95-0.0186-14.38-16.96-18.67-21.61-19.65-4.655-0.9772-14.63 0.7262-13.78-3.347 0.8552-4.073 27.06-6.529 16.86-34.35-3.606-9.839-11.77-15.46-20.83-17.55zm-7.755 13.65c4.428-0.5908 13.22 4.33 13.54 5.651 0.9117 3.843 2.165 15.17-2.835 16.48-5.001 1.312-16.32 4.464-17.46 3.257-1.146-1.207-8.025-17.5-5.606-20.76 1.544-2.198 7.838-4.05 12.36-4.621zm20.28 57.49c1.707 0.3634 2.92 0.974 3.279 1.894 1.435 3.679 1.523 10.96-3.248 12.95-4.771 1.992-17.72 3.55-19.01 2.514-1.299-1.037-2.795-13.61 0.0817-15.64 4.224-1.687 13.78-2.819 18.9-1.728z"/><path d="m406 142.3s-5.693-20.79-6.676-23.59c-0.9775-2.796-7.647-16.58-7.893-19.83-0.2488-3.264 1.635-9.716 6.908-7.499 5.273 2.218 6.333 7.687 8.291 8.519 1.959 0.8322 7.73-0.0886 9.918-1.494 2.187-1.406 9.759-6.694 12.74-6.192 2.989 0.5032 5.261 6.679 5.153 8.021-0.1076 1.342-5.247 8.34-8.687 7.701-3.44-0.6385-11.99-3.052-15.2-1.17-3.213 1.883 0.15 17.25 1.235 18.7 1.085 1.454 6.795 15.25 5.671 17.37-1.125 2.116-3.843 5.62-7.018 3.933-3.175-1.687-4.45-4.474-4.45-4.474z"/><path d="m282 61.44c-1.544-0.4969-3.235-0.8906-5.082-1.157-14.77-2.133-24.29 12.24-24.83 19.36s10.98 15.93 11.05 17.06c0.0761 1.129-15.12 4.385-14.21 17.27 0.9086 12.89 9.424 28.9 23.94 24.99 5.307-1.375 16.12-12.24 18.44-11.93 2.329 0.3124 19.58 5.427 21.04 5.68 1.464 0.2533 4.894-4.57 5.607-6.77s1.833-8.375 0.6976-8.963c-1.135-0.5885-13.77-2.536-13.84-3.665-0.0761-1.129 12.16-15.4 12.27-17.8 0.1124-2.394-8.667-10.08-9.92-8.934-1.253 1.14-10.2 16.87-11.46 16.68-1.264-0.1886-11.26-3.426-11.55-5.95-0.2875-2.523 8.685-10.44 10.55-17.57 1.634-6.238-1.893-14.82-12.7-18.3zm-5.762 10.87c3.343 1.083 6.155 4.405 5.375 6.814-0.9601 2.964-1.516 3.919-3.957 3.884-2.442-0.035-7.508 1.222-7.732-2.629-0.2242-3.851-0.8189-6.942 3.953-8.421 0.7907-0.0273 1.59 0.1022 2.361 0.3521zm2.663 37.44c4.259 1.379 7.862 5.538 6.895 8.525-1.191 3.677-1.885 4.857-4.989 4.79-3.103-0.0676-9.53 1.445-9.848-3.346-0.3233-4.792-1.108-8.64 4.942-10.44 1.005-0.0262 2.023 0.144 3.006 0.4623z"/><path d="m449.7 55.33c-0.9288-0.2011-1.89-0.2973-2.891-0.2797-10.67 0.1904-26.66 19.92-27.28 24.34-0.6252 4.425-1.166 8.096 0.1418 9.448 3.087 3.188 14.74-13.86 20.94-15.9 6.201-2.039 14.34 2.647 15.51 8.664 1.167 6.016-0.498 15.39-5.168 15.93-4.669 0.5381-19.52-1.061-21.89 2.998-2.37 4.059-5.515 21.92-3.401 26.32s9.072 14.66 10.59 14.68c1.515 0.0144 13.28-11.18 22.35-13.83 9.063-2.654 14.84-4.174 18.86-3.026 4.012 1.146 6.355 0.1193 6.783-1.917 0.4276-2.037 4.052-9.175-0.1893-10.68-4.242-1.498-11.51-3.025-12.45-8.689-0.9362-5.664-1.588-22.81-1.588-22.81-5.542-11.63-11.32-23.3-20.3-25.25zm3.654 51.07c1.067 0.222 1.8 0.8711 2.115 2.192 0.9117 3.843 3.13 9.141-1.872 10.46-5.001 1.312-9.37 3.189-10.51 1.982-1.142-1.206-2.014-11.38 1.114-12.98 3.865-0.9502 7.118-2.077 9.156-1.652z"/><path d="m479.3 6.586c4.745 0.6814 8.597 9.131 9.423 17.37 0.8255 8.235-1.553 64.29 2.768 64.25 4.321-0.04306 8.661-6.877 8.454-10.63-0.2064-3.752 3.093-22.58 6.067-26.69 2.976-4.117 9.754-4.113 11.73-2.34s-1.583 26.07-4.141 30.92c-2.559 4.848-8.715 9.328-8.194 11.93 0.5194 2.607 13.7 12.99 17.56 14.66s14.65 2.774 13.39 7.361c-1.255 4.588-1.259 11.36-4.024 12.46-2.765 1.093-16.99-7.73-22.52-12.32-5.524-4.592-5-8.764-8.436-9.704-3.441-0.9411-0.4354 26.38-4.243 29.04-3.808 2.657-14.65-2.774-14.86-6.529-0.206-3.754-13.59-96.79-13.43-104.1 0.1612-7.353 10.44-15.64 10.44-15.64z"/></g></svg>
